<?xml version="1.0" standalone="no"?>
<!DOCTYPE svg PUBLIC "-//W3C//DTD SVG 20010904//EN"
 "http://www.w3.org/TR/2001/REC-SVG-20010904/DTD/svg10.dtd">
<svg version="1.0" xmlns="http://www.w3.org/2000/svg"
 width="960.000000pt" height="960.000000pt" viewBox="0 0 960.000000 960.000000"
 preserveAspectRatio="xMidYMid meet">
<metadata>
Created by potrace 1.11, written by Peter Selinger 2001-2013
</metadata>
<g transform="translate(0.000000,960.000000) scale(0.100000,-0.100000)"
fill="#000000" stroke="none">
<path d="M0 4800 l0 -4800 4800 0 4800 0 0 4800 0 4800 -4800 0 -4800 0 0
-4800z m4510 3232 c58 -12 132 -27 165 -32 73 -13 116 -26 173 -51 23 -11 50
-19 60 -19 10 0 36 -9 57 -20 22 -11 57 -25 77 -31 20 -5 44 -16 52 -24 8 -8
19 -15 24 -15 5 0 17 -9 27 -20 10 -11 22 -20 26 -20 5 0 19 -9 31 -21 47 -42
137 -109 147 -109 6 0 11 -4 11 -8 0 -5 38 -39 84 -76 46 -37 95 -82 108 -99
13 -17 35 -45 51 -63 15 -17 27 -39 27 -48 0 -9 4 -16 10 -16 5 0 16 -13 25
-29 8 -16 20 -35 27 -43 16 -17 32 -42 59 -93 12 -22 25 -42 29 -45 4 -3 15
-21 24 -40 8 -19 21 -44 28 -55 34 -52 58 -96 58 -106 0 -6 7 -17 15 -25 17
-17 15 -10 45 -204 13 -80 21 -154 19 -165 -3 -11 2 -27 11 -36 13 -14 28 -15
110 -6 79 8 110 7 190 -9 52 -10 101 -25 109 -32 11 -10 16 -11 21 -1 6 9 15
9 40 0 18 -6 46 -11 61 -11 23 0 29 -4 29 -22 0 -13 4 -28 8 -33 13 -18 57
-35 79 -31 13 3 25 1 28 -5 9 -14 35 -11 31 4 -1 6 -1 9 1 5 3 -5 14 -8 26 -8
18 0 19 -2 7 -10 -12 -8 -9 -10 11 -10 15 0 38 -11 52 -25 18 -19 27 -22 33
-14 4 8 3 9 -4 5 -7 -4 -12 -1 -12 8 0 9 7 16 15 16 7 0 18 7 22 14 7 12 20 9
73 -19 36 -19 79 -41 96 -49 35 -17 171 -153 194 -194 8 -15 18 -28 23 -30 4
-2 7 -9 7 -16 0 -7 11 -22 25 -32 14 -10 25 -22 25 -27 0 -5 18 -30 40 -56 22
-26 40 -52 40 -59 0 -6 9 -19 19 -29 25 -24 53 -91 40 -98 -5 -4 -9 -1 -9 6 0
6 -12 22 -26 35 -14 13 -23 28 -19 33 3 5 -4 12 -15 16 -11 3 -20 10 -20 14 0
14 -37 51 -44 44 -3 -3 -6 1 -6 10 0 8 -9 19 -20 22 -11 3 -20 10 -20 14 0 10
-47 61 -55 61 -4 0 -28 19 -53 41 -26 23 -58 46 -72 52 -14 7 -45 28 -70 48
-25 20 -57 43 -72 50 -15 8 -64 33 -109 57 -52 27 -101 45 -133 49 -64 7 -86
18 -86 43 0 23 -4 24 -30 10 -13 -7 -21 -7 -25 0 -3 5 -1 10 5 10 7 0 10 6 7
13 -2 6 -10 11 -17 9 -6 -1 -14 7 -17 18 -8 32 -20 23 -15 -11 3 -22 1 -30 -7
-25 -6 4 -11 3 -11 -3 0 -5 8 -14 17 -20 10 -5 15 -13 11 -16 -4 -4 -12 -3
-19 1 -17 10 -59 12 -53 2 7 -12 -30 -10 -42 2 -18 18 -223 30 -344 20 -61 -5
-80 2 -80 31 0 10 -5 19 -11 19 -5 0 -7 5 -4 10 4 6 -8 10 -30 10 -20 0 -38 6
-41 13 -3 8 -18 14 -34 14 -18 0 -30 -6 -30 -14 0 -7 -4 -13 -10 -13 -5 0 -10
-9 -10 -20 0 -14 5 -18 18 -13 9 4 21 11 25 17 5 6 6 -6 3 -26 -2 -21 -1 -38
2 -38 13 0 42 -57 41 -82 0 -21 -1 -22 -8 -3 -5 11 -7 23 -4 28 6 10 -5 9 -28
-4 -17 -9 -21 -7 -26 11 -4 13 -16 23 -34 27 -16 3 -29 12 -29 20 0 8 -5 11
-12 7 -8 -5 -9 -2 -4 12 16 39 19 57 8 50 -6 -3 -17 1 -25 9 -9 8 -24 15 -34
16 -10 0 -13 3 -5 6 25 10 11 19 -25 15 -34 -4 -42 8 -10 14 69 14 131 22 138
18 14 -8 10 85 -6 151 -8 33 -20 91 -25 129 -6 38 -19 81 -30 96 -11 16 -20
32 -20 37 0 6 -9 18 -20 28 -11 10 -20 22 -20 27 0 5 -8 21 -19 36 -10 15 -35
54 -56 87 -52 82 -206 285 -216 285 -4 0 -18 10 -31 23 -13 12 -41 36 -62 52
-21 17 -44 35 -50 41 -6 5 -19 13 -28 17 -10 3 -18 11 -18 16 0 5 -33 33 -72
62 -40 29 -82 61 -93 71 -58 52 -79 68 -89 68 -6 0 -28 9 -49 20 -20 11 -44
20 -52 20 -9 0 -26 7 -39 15 -36 24 -173 65 -246 74 -36 5 -90 16 -120 24 -30
9 -102 18 -159 22 -58 3 -115 8 -128 11 -27 7 -150 -10 -271 -37 -46 -11 -94
-19 -106 -19 -13 0 -49 -9 -82 -19 -78 -25 -138 -35 -130 -22 4 5 -2 12 -13
16 -11 3 -22 12 -25 20 -6 17 -36 21 -36 5 0 -6 11 -15 24 -20 50 -19 40 -48
-20 -56 -21 -3 -34 -2 -28 3 18 14 25 43 10 43 -13 0 -30 39 -21 49 3 2 5 -1
5 -7 0 -7 5 -12 11 -12 6 0 8 8 4 19 -5 17 -2 19 18 16 14 -3 32 3 45 15 23
22 36 13 25 -17 -6 -15 -4 -16 9 -5 23 19 29 62 9 62 -13 1 -13 2 2 11 14 8
22 8 30 0 6 -6 7 -11 3 -11 -5 0 -3 -7 4 -15 10 -12 10 -15 -4 -15 -9 0 -16
-4 -16 -10 0 -5 12 -10 26 -10 21 0 24 4 19 20 -9 28 13 63 36 57 11 -3 19 0
19 7 0 6 10 12 22 13 11 1 24 7 29 14 4 7 17 9 34 5 17 -4 24 -3 20 4 -3 5 2
10 13 10 10 0 45 9 78 21 32 12 97 24 144 28 131 9 362 -4 480 -27z m-1010
-132 c0 -5 -4 -10 -10 -10 -5 0 -10 5 -10 10 0 6 5 10 10 10 6 0 10 -4 10 -10z
m-100 -90 c0 -5 -4 -10 -10 -10 -5 0 -10 5 -10 10 0 6 5 10 10 10 6 0 10 -4
10 -10z m-30 -20 c0 -5 -4 -10 -10 -10 -5 0 -10 5 -10 10 0 6 5 10 10 10 6 0
10 -4 10 -10z m-50 -111 c0 -5 -9 -13 -20 -19 -18 -10 -20 -8 -20 26 0 36 0
37 20 19 11 -10 20 -22 20 -26z m-79 -32 c-13 -13 -26 -3 -16 12 3 6 11 8 17
5 6 -4 6 -10 -1 -17z m29 -7 c0 -5 -5 -10 -11 -10 -5 0 -7 5 -4 10 3 6 8 10
11 10 2 0 4 -4 4 -10z m-190 -30 c-19 -13 -30 -13 -30 0 0 6 10 10 23 10 18 0
19 -2 7 -10z m81 -10 c20 -11 25 -35 9 -45 -11 -7 -40 17 -40 33 0 6 -6 13
-12 15 -8 3 -5 6 5 6 10 1 27 -4 38 -9z m69 6 c0 -2 -7 -7 -16 -10 -8 -3 -12
-2 -9 4 6 10 25 14 25 6z m-247 -90 c-4 -19 -1 -24 14 -23 13 2 19 -6 21 -29
3 -26 -3 -36 -27 -53 -16 -12 -33 -20 -38 -19 -12 4 -58 -34 -66 -54 -3 -10
-13 -18 -22 -18 -8 0 -15 -4 -15 -8 0 -5 -14 -24 -31 -43 -17 -19 -35 -44 -40
-57 -5 -12 -19 -27 -31 -32 -18 -7 -19 -9 -5 -9 25 -1 21 -21 -5 -21 -19 0
-20 -2 -8 -11 13 -9 13 -10 0 -6 -20 5 -25 46 -7 53 9 3 13 13 10 25 -3 10 -1
19 5 19 6 0 13 13 17 28 3 15 23 47 45 70 22 23 46 56 53 74 17 40 62 83 76
73 6 -3 9 -10 7 -13 -2 -4 5 -12 17 -18 19 -8 22 -7 23 13 2 19 -2 22 -16 18
-31 -10 -35 17 -6 42 34 29 34 29 29 -1z m-323 -561 c0 -8 -4 -15 -10 -15 -5
0 -10 7 -10 15 0 8 5 15 10 15 6 0 10 -7 10 -15z m-7 -258 c3 -7 -1 -55 -9
-106 -8 -51 -11 -97 -8 -102 3 -5 -3 -10 -13 -10 -16 -1 -16 -2 -1 -6 13 -3
17 -18 17 -76 1 -40 3 -85 5 -102 2 -16 7 -66 11 -110 3 -44 13 -116 20 -160
8 -44 17 -105 20 -135 8 -82 46 -508 50 -562 1 -26 5 -50 8 -55 10 -18 8 -133
-2 -133 -6 0 -11 -8 -10 -17 0 -11 3 -13 6 -5 7 17 23 5 23 -19 0 -25 -19 -24
-55 6 -26 21 -26 24 -7 18 17 -4 21 -2 16 10 -3 9 -12 13 -20 10 -19 -7 -64 5
-64 17 0 6 9 19 19 29 20 20 20 20 1 26 -28 9 -50 58 -37 81 10 17 11 17 18
-1 8 -20 9 -20 7 0 -1 11 5 35 14 53 9 18 12 29 6 26 -6 -4 -19 4 -29 17 -14
18 -19 20 -19 8 0 -9 6 -19 14 -22 12 -5 12 -11 3 -31 -12 -25 -12 -25 -18 -3
-3 12 -12 21 -21 21 -13 -1 -16 27 -22 205 -13 412 -16 626 -8 606 6 -12 11
32 16 120 7 154 18 227 35 233 6 2 11 8 11 13 0 6 -5 7 -12 3 -8 -5 -9 0 -4
17 4 13 10 52 13 87 5 59 15 77 26 49z m2927 -257 c0 -5 -4 -10 -10 -10 -5 0
-10 5 -10 10 0 6 5 10 10 10 6 0 10 -4 10 -10z m994 -5 c-4 -8 -10 -15 -15
-15 -5 0 -9 7 -9 15 0 8 7 15 15 15 9 0 12 -6 9 -15z m75 9 c17 -4 31 -12 31
-20 0 -25 -20 -25 -57 1 -38 25 -32 30 26 19z m-1123 -13 c-16 -6 -17 -9 -4
-22 9 -8 18 -26 22 -39 6 -19 5 -21 -3 -10 -6 8 -11 13 -12 10 -5 -28 -4 -48
3 -44 4 3 8 1 8 -4 0 -6 -7 -12 -15 -16 -22 -8 -18 -26 6 -26 11 0 17 -4 14
-10 -6 -10 -57 -35 -90 -43 -43 -11 -128 -45 -134 -53 -3 -5 -19 -18 -36 -28
-16 -11 -34 -23 -40 -28 -5 -4 -24 -19 -41 -33 -18 -14 -35 -25 -39 -25 -3 0
-12 -6 -20 -12 -7 -7 -38 -33 -69 -57 -31 -24 -56 -48 -56 -52 0 -5 -6 -9 -14
-9 -14 0 -116 -92 -116 -105 0 -3 -11 -21 -25 -39 -14 -18 -25 -37 -25 -41 0
-5 -6 -16 -14 -24 -14 -16 -107 -195 -126 -241 -5 -14 -14 -32 -19 -40 -28
-47 -101 -274 -101 -312 0 -10 -8 -39 -19 -65 -10 -26 -19 -75 -20 -108 -1
-33 -8 -105 -16 -160 -7 -55 -17 -146 -21 -202 -3 -57 -10 -103 -13 -103 -12
0 -12 -88 -1 -153 26 -146 43 -233 47 -244 3 -7 -2 -13 -12 -13 -12 0 -15 5
-10 21 4 12 3 19 -2 16 -5 -3 -15 21 -23 54 -7 34 -19 63 -26 66 -8 3 -14 17
-14 32 0 14 -7 45 -15 68 -41 119 -41 632 1 818 22 97 63 254 76 290 30 86 41
111 54 126 8 8 14 24 14 33 0 23 50 116 62 116 5 0 6 5 3 10 -8 12 29 95 51
117 8 8 14 21 14 30 0 21 61 100 115 148 24 22 70 64 101 93 31 29 82 70 113
91 31 21 63 46 70 55 7 9 20 16 27 16 8 0 14 4 14 9 0 13 85 61 107 61 10 0
45 14 78 30 59 29 112 40 100 20 -3 -5 3 -10 14 -10 12 0 21 -4 21 -10 0 -5 6
-10 13 -10 6 1 2 9 -11 20 l-23 19 28 14 c16 8 37 15 48 15 19 1 19 0 1 -7z
m1247 -17 c3 -4 0 -13 -8 -20 -18 -18 -31 -18 -16 -1 6 8 8 17 4 20 -3 4 -2 7
4 7 5 0 12 -3 16 -6z m-43 -14 c0 -5 -4 -10 -10 -10 -5 0 -10 5 -10 10 0 6 5
10 10 10 6 0 10 -4 10 -10z m-790 -45 c0 -16 -5 -22 -17 -21 -24 4 -35 39 -14
47 22 9 31 2 31 -26z m890 11 c0 -3 -4 -8 -10 -11 -5 -3 -10 -1 -10 4 0 6 5
11 10 11 6 0 10 -2 10 -4z m-30 -16 c0 -5 -4 -10 -9 -10 -6 0 -13 5 -16 10 -3
6 1 10 9 10 9 0 16 -4 16 -10z m-1065 -40 c-3 -5 -11 -10 -16 -10 -6 0 -7 5
-4 10 3 6 11 10 16 10 6 0 7 -4 4 -10z m221 -10 c0 -11 -4 -20 -8 -20 -5 0 -6
-11 -4 -25 3 -14 0 -25 -5 -25 -5 0 -9 8 -9 18 0 15 -2 15 -11 2 -9 -12 -9
-11 -4 5 4 11 7 30 6 43 0 15 5 22 17 22 11 0 18 -8 18 -20z m-66 -220 c0 -11
-6 -20 -13 -20 -19 0 -27 10 -20 26 8 21 33 17 33 -6z m47 -42 c-3 -7 -5 -2
-5 12 0 14 2 19 5 13 2 -7 2 -19 0 -25z m-14 -99 c-2 -60 -18 -150 -49 -264
-7 -27 -18 -69 -24 -92 -23 -94 -32 -130 -45 -178 -16 -59 -70 -209 -81 -227
-4 -7 -11 -28 -14 -48 -3 -19 -11 -34 -17 -33 -6 1 -30 -56 -53 -128 -24 -71
-47 -132 -52 -135 -4 -3 -8 -16 -8 -29 0 -27 -15 -41 -24 -23 -3 7 -4 1 -1
-14 6 -31 -3 -60 -16 -52 -5 3 -6 -2 -3 -10 7 -17 -31 -106 -45 -106 -10 0 -6
18 24 105 10 28 19 64 22 80 9 71 26 146 34 151 5 3 9 18 9 33 0 16 11 71 24
122 24 94 41 187 37 202 -1 5 4 27 10 50 7 23 18 69 25 102 23 107 37 155 46
155 4 0 8 7 8 16 0 8 -5 12 -10 9 -7 -4 -8 3 -4 22 4 15 10 29 14 31 5 2 6 12
3 23 -3 11 -2 19 3 18 20 -3 28 2 15 10 -11 7 -11 15 -1 47 7 22 18 42 24 47
8 5 7 10 -2 16 -8 5 -12 23 -10 47 2 33 7 40 27 42 15 3 30 -3 38 -14 12 -16
13 -16 13 -1 0 9 7 17 15 17 22 0 57 42 51 63 -3 11 0 17 7 14 8 -3 11 -27 10
-68z m-101 9 c-6 -6 -15 -8 -19 -4 -4 4 -1 11 7 16 19 12 27 3 12 -12z m1669
-335 c0 -44 20 -142 32 -161 5 -7 10 -56 13 -109 3 -75 1 -101 -11 -119 -13
-20 -13 -24 -1 -24 23 0 33 -22 38 -82 4 -45 2 -55 -9 -51 -8 3 -12 12 -9 19
8 20 -11 17 -22 -2 -14 -25 -3 -53 18 -47 10 3 21 0 24 -6 4 -7 1 -8 -8 -5
-10 4 -16 1 -16 -7 0 -7 -3 -10 -6 -6 -3 3 -15 -4 -26 -15 -16 -16 -18 -22 -7
-29 12 -7 11 -9 -1 -10 -10 0 -8 -3 5 -9 26 -11 27 -11 45 0 13 8 12 11 -5 24
-17 13 -17 15 -4 16 20 0 31 -22 35 -67 2 -24 -2 -33 -17 -38 -10 -4 -17 -10
-14 -15 3 -5 12 -7 20 -3 22 8 18 -15 -5 -27 -11 -6 -20 -17 -20 -26 0 -12 -4
-12 -20 -4 -11 6 -20 20 -20 30 0 11 -6 30 -12 41 -10 17 -10 23 0 26 6 3 12
9 12 14 0 6 -4 8 -9 5 -13 -8 -34 21 -25 35 4 7 6 32 5 57 -1 32 4 48 16 58
17 13 17 13 1 14 -22 0 -25 37 -3 37 8 0 12 -4 9 -8 -5 -9 15 -24 22 -16 11
11 14 87 4 87 -6 0 -10 -6 -9 -12 3 -24 -1 -38 -11 -38 -6 0 -10 59 -10 158 0
140 -8 241 -26 325 -4 20 -2 27 10 27 12 0 16 -10 17 -37z m-4881 -295 c0 -13
-23 -5 -28 10 -2 7 2 10 12 6 9 -3 16 -11 16 -16z m66 -253 c-3 -10 1 -15 11
-15 9 0 14 -2 11 -5 -3 -4 -18 -3 -32 1 -25 6 -25 7 -9 20 23 17 26 17 19 -1z
m106 -35 c9 -47 1 -80 -20 -73 -11 5 -13 3 -7 -6 6 -10 3 -11 -12 -3 -10 6
-19 20 -20 32 -1 12 -10 28 -20 36 -16 12 -16 13 -2 14 23 0 44 26 27 33 -7 3
0 4 17 3 25 -1 30 -6 37 -36z m-47 -116 c0 -22 -34 -32 -46 -12 -6 8 -3 17 8
26 22 16 38 10 38 -14z m58 -26 c-2 -5 -11 -8 -19 -8 -15 0 -18 18 -8 45 6 14
8 13 19 -7 6 -13 10 -26 8 -30z m4697 -47 c0 -25 -18 1 -25 34 l-6 30 15 -25
c8 -14 15 -32 16 -39z m-4802 -28 c10 -19 5 -43 -8 -43 -4 0 -10 14 -12 30 -5
33 6 40 20 13z m4892 7 c0 -5 -4 -10 -10 -10 -5 0 -10 5 -10 10 0 6 5 10 10
10 6 0 10 -4 10 -10z m-4836 -35 c-4 -8 -8 -15 -10 -15 -2 0 -4 7 -4 15 0 8 4
15 10 15 5 0 7 -7 4 -15z m4746 -165 c0 -5 -2 -10 -4 -10 -3 0 -8 5 -11 10 -3
6 -1 10 4 10 6 0 11 -4 11 -10z m-4620 -85 c0 -9 -6 -12 -15 -9 -8 4 -12 10
-9 15 8 14 24 10 24 -6z m4689 -110 c-1 -52 -5 -95 -10 -95 -5 0 -9 9 -9 20 0
11 -5 20 -11 20 -6 0 -9 -6 -6 -14 3 -7 0 -19 -6 -25 -8 -8 -5 -11 11 -11 19
0 22 -5 22 -37 0 -21 -12 -69 -26 -108 -14 -38 -29 -86 -33 -105 -4 -19 -15
-57 -24 -85 -49 -150 -57 -193 -57 -289 0 -80 -5 -112 -25 -168 -14 -38 -25
-80 -25 -93 0 -13 -4 -27 -10 -30 -5 -3 -10 -12 -10 -20 0 -26 -105 -230 -136
-266 -8 -8 -14 -21 -14 -27 0 -7 -9 -17 -20 -24 -11 -7 -20 -18 -20 -25 0 -7
-15 -28 -32 -47 -18 -19 -39 -42 -46 -51 -11 -12 -17 -13 -28 -4 -8 6 -14 19
-14 28 0 13 -2 14 -9 1 -6 -8 -7 -18 -5 -22 3 -5 -6 -6 -20 -2 -22 5 -26 3
-26 -15 0 -18 4 -20 25 -15 15 4 25 2 25 -5 0 -6 -6 -11 -12 -11 -10 0 -10 -2
0 -9 10 -6 10 -10 -3 -21 -9 -7 -15 -9 -13 -4 5 15 -44 61 -71 67 -14 4 -31 1
-38 -5 -11 -8 -12 -7 -7 6 3 9 10 16 15 16 5 0 9 8 9 18 0 9 -4 13 -8 7 -4 -5
-18 -12 -32 -14 -25 -3 -25 -3 -6 18 10 11 23 18 27 15 5 -3 9 0 9 7 0 12 68
101 82 107 5 2 8 8 8 14 0 6 15 29 33 52 19 23 54 76 78 119 24 43 49 87 54
97 6 10 16 24 22 31 6 8 18 39 26 69 9 30 24 87 35 125 11 39 23 99 26 135 9
90 24 166 45 225 10 28 33 95 51 150 18 55 38 112 46 126 7 14 16 53 19 86 6
47 13 66 31 82 13 12 24 25 24 31 0 5 16 8 35 6 34 -2 35 -1 35 31 0 18 4 33
10 33 5 0 9 -40 9 -95z m-4849 40 c0 -8 -4 -15 -10 -15 -5 0 -10 7 -10 15 0 8
5 15 10 15 6 0 10 -7 10 -15z m110 5 c0 -6 -7 -13 -15 -16 -8 -4 -15 -13 -15
-22 0 -8 -2 -13 -5 -10 -11 10 7 58 21 58 8 0 14 -5 14 -10z m2603 -57 c-8
-27 -23 -63 -32 -82 -14 -31 -16 -33 -19 -12 -2 12 3 37 11 54 9 18 19 44 22
60 4 15 13 27 21 27 11 0 10 -9 -3 -47z m-2688 11 c14 -9 25 -22 25 -30 0 -10
6 -11 25 -4 20 7 27 6 31 -4 3 -8 12 -12 20 -9 9 3 14 -2 14 -17 0 -30 25 -53
52 -46 13 3 17 3 11 0 -18 -8 -16 -27 2 -20 8 3 15 1 15 -5 0 -6 8 -23 19 -37
10 -15 22 -38 26 -52 9 -29 59 -135 77 -165 7 -11 22 -33 33 -50 11 -16 27
-43 35 -59 8 -17 39 -55 68 -87 28 -31 52 -61 52 -65 0 -5 9 -15 20 -22 11 -7
20 -16 20 -22 0 -10 47 -60 58 -61 4 0 23 -20 42 -44 19 -24 38 -44 41 -44 4
-1 26 -19 50 -41 24 -22 48 -40 52 -40 5 0 23 -10 40 -22 54 -39 80 -53 167
-90 25 -11 61 -28 82 -39 20 -11 69 -24 110 -29 40 -5 89 -14 108 -20 19 -5
77 -10 128 -10 68 0 91 -3 86 -12 -5 -7 -3 -8 7 -2 28 18 79 32 85 23 8 -13
24 -11 24 4 0 13 88 58 95 47 2 -3 20 -4 39 -2 30 3 36 8 36 27 0 17 6 23 24
23 18 0 23 -5 19 -15 -5 -13 -2 -13 16 -3 17 8 20 15 11 24 -5 8 -8 21 -4 30
3 9 1 16 -5 16 -6 0 -11 9 -11 20 0 11 6 20 13 20 8 0 7 4 -3 11 -12 9 -11 9
5 3 32 -12 72 -8 90 10 22 22 35 20 35 -4 0 -11 4 -20 10 -20 6 0 6 9 1 23 -8
21 -1 32 56 91 50 51 68 64 75 54 8 -10 9 -9 5 3 -3 10 4 25 16 36 12 11 40
41 62 68 22 27 68 77 103 112 34 35 62 65 62 68 0 11 52 55 61 50 5 -4 9 1 9
9 0 8 11 27 25 42 14 15 25 33 25 40 0 8 4 14 10 14 5 0 22 19 36 43 15 23 27
43 28 44 1 1 12 0 24 -4 23 -6 22 -11 -19 -83 -5 -8 -20 -37 -34 -65 -57 -112
-68 -130 -81 -138 -8 -4 -14 -14 -14 -20 0 -27 -22 -36 -47 -20 -21 14 -23 14
-17 -1 3 -9 12 -16 20 -16 8 0 14 -7 14 -15 0 -8 -4 -15 -9 -15 -5 0 -13 -9
-16 -21 -4 -12 -14 -30 -24 -41 -23 -28 -42 -52 -71 -88 -55 -69 -131 -141
-142 -134 -7 4 -8 3 -4 -5 8 -13 -131 -154 -144 -146 -4 2 -16 -6 -26 -20
l-18 -24 -13 22 c-7 12 -15 30 -19 39 -3 9 -12 14 -20 11 -10 -4 -11 -9 -4
-17 7 -9 4 -12 -12 -12 -11 1 -23 -5 -26 -13 -3 -10 1 -12 17 -8 21 5 29 -7
11 -18 -5 -3 -7 -12 -4 -20 4 -8 10 -12 15 -9 5 3 9 1 9 -4 0 -30 -243 -149
-335 -163 -61 -10 -235 -7 -405 6 -85 6 -192 35 -263 71 -27 13 -56 24 -65 24
-8 0 -23 6 -31 14 -9 7 -43 28 -76 46 -89 49 -134 82 -196 144 -31 31 -59 56
-62 56 -10 0 -67 58 -67 69 0 6 -5 11 -10 11 -6 0 -18 13 -29 30 -10 16 -20
28 -23 25 -6 -6 -124 143 -158 199 -22 37 -22 39 -6 70 l17 31 -20 -23 -21
-24 -9 25 c-5 14 -14 28 -20 31 -5 3 -17 28 -27 54 -9 26 -22 52 -28 57 -6 6
-16 28 -23 50 -6 22 -21 65 -33 95 -40 100 -47 124 -53 183 -3 31 -3 57 -1 57
3 0 16 -7 29 -16z m2622 -183 c0 -10 -7 -17 -13 -14 -7 3 -10 11 -7 19 8 20
22 17 20 -5z m-804 -602 c4 -16 3 -18 -9 -8 -7 6 -11 15 -8 20 8 13 11 11 17
-12z m17 -33 c0 -2 -7 -7 -16 -10 -8 -3 -12 -2 -9 4 6 10 25 14 25 6z m10 -46
c0 -5 -4 -10 -10 -10 -5 0 -10 5 -10 10 0 6 5 10 10 10 6 0 10 -4 10 -10z m15
-30 c3 -5 1 -10 -4 -10 -6 0 -11 5 -11 10 0 6 2 10 4 10 3 0 8 -4 11 -10z m91
-214 c3 -8 16 -17 29 -20 22 -6 35 -21 115 -135 19 -28 40 -50 46 -51 6 0 16
-11 22 -25 6 -14 16 -25 22 -25 5 0 10 -5 10 -11 0 -6 21 -37 48 -68 26 -32
56 -70 67 -85 11 -15 29 -38 40 -51 11 -12 38 -44 60 -71 78 -97 217 -224 283
-261 37 -20 73 -43 80 -50 7 -7 21 -13 31 -13 61 0 111 -50 76 -76 -13 -10
-13 -13 2 -25 11 -9 14 -10 9 -1 -14 24 14 12 30 -14 15 -22 19 -23 26 -9 11
19 -6 45 -29 45 -8 0 -13 7 -11 18 4 21 42 21 229 4 121 -11 199 -29 171 -39
-7 -3 -19 1 -27 7 -10 8 -15 9 -15 2 0 -6 9 -14 21 -17 16 -5 18 -10 8 -21 -6
-8 -17 -14 -23 -14 -7 0 -6 4 2 9 11 6 10 10 -4 15 -23 9 -28 2 -15 -22 13
-24 14 -33 3 -30 -4 2 -18 -7 -31 -19 -13 -12 -29 -19 -37 -16 -8 3 -14 0 -14
-5 0 -6 10 -13 23 -16 12 -3 -3 -3 -33 0 -30 2 -92 7 -138 11 -52 4 -89 12
-98 21 -8 8 -35 16 -60 19 -25 2 -66 13 -91 24 -24 10 -51 19 -58 19 -7 0 -26
11 -42 24 -15 13 -38 26 -50 30 -11 4 -27 13 -33 21 -7 8 -18 15 -26 15 -7 0
-33 19 -57 43 -24 23 -68 65 -98 92 -57 53 -89 90 -89 103 0 4 -8 15 -17 24
-20 18 -25 25 -68 83 -17 22 -33 42 -37 43 -5 2 -8 10 -8 17 0 8 -8 20 -18 27
-10 7 -21 20 -25 28 -4 8 -23 35 -42 60 -19 25 -38 52 -41 60 -3 8 -10 27 -16
43 -6 15 -14 27 -19 27 -5 0 -9 7 -9 16 0 8 -11 30 -25 48 -14 18 -25 38 -25
45 0 6 -5 21 -12 34 -25 48 -28 58 -28 80 0 13 -5 28 -12 35 -9 9 -8 12 5 12
10 0 20 -6 23 -14z m1389 -936 c7 -12 -2 -12 -30 0 -19 8 -19 9 2 9 12 1 25
-3 28 -9z m195 -29 c0 -14 -18 -23 -30 -16 -6 4 -8 11 -5 16 8 12 35 12 35 0z
m-10 -61 c0 -5 -7 -10 -16 -10 -8 0 -12 5 -9 10 3 6 10 10 16 10 5 0 9 -4 9
-10z m-270 -61 c0 -5 -4 -9 -10 -9 -5 0 -10 7 -10 16 0 8 5 12 10 9 6 -3 10
-10 10 -16z"/>
<path d="M3743 7976 c-13 -6 -23 -14 -23 -18 0 -13 17 -9 30 7 7 8 17 12 23 8
6 -3 7 -1 3 5 -4 7 -8 11 -9 11 -1 -1 -12 -6 -24 -13z"/>
<path d="M3658 7931 c8 -5 13 -11 13 -15 -3 -25 1 -36 15 -36 14 0 14 2 -1 16
-11 11 -13 20 -6 28 7 8 4 12 -12 13 -15 2 -18 0 -9 -6z"/>
<path d="M3726 7931 c-4 -5 1 -8 9 -7 21 3 31 16 12 16 -9 0 -18 -4 -21 -9z"/>
<path d="M3755 7890 c-3 -5 -1 -10 4 -10 6 0 11 5 11 10 0 6 -2 10 -4 10 -3 0
-8 -4 -11 -10z"/>
<path d="M3770 7859 c0 -5 5 -7 10 -4 6 3 10 8 10 11 0 2 -4 4 -10 4 -5 0 -10
-5 -10 -11z"/>
<path d="M3610 7820 c0 -5 4 -10 9 -10 6 0 13 5 16 10 3 6 -1 10 -9 10 -9 0
-16 -4 -16 -10z"/>
<path d="M5929 6514 c-7 -9 -22 -20 -34 -24 -18 -8 -17 -9 8 -9 16 -1 26 3 22
8 -3 5 4 11 15 13 13 2 17 7 11 16 -6 10 -11 9 -22 -4z"/>
<path d="M5805 6470 c-3 -6 1 -7 9 -4 18 7 21 14 7 14 -6 0 -13 -4 -16 -10z"/>
<path d="M6227 6468 c-10 -5 -25 -7 -33 -4 -8 3 -14 1 -14 -4 0 -14 57 -13 65
1 10 15 2 19 -18 7z"/>
<path d="M5760 6449 c0 -11 4 -18 10 -14 5 3 7 12 3 20 -7 21 -13 19 -13 -6z"/>
<path d="M6085 6433 c4 -10 10 -28 12 -40 3 -13 7 -23 10 -23 10 0 32 28 26
34 -4 3 -3 6 1 6 3 0 10 -10 15 -22 7 -19 9 -15 9 20 l1 42 -27 -21 -27 -21
-3 21 c-2 12 -8 21 -14 21 -6 0 -7 -7 -3 -17z"/>
<path d="M6012 6432 c-7 -2 -17 -13 -23 -25 -9 -18 -9 -20 1 -10 11 10 16 9
24 -3 10 -12 12 -12 22 3 13 21 -2 43 -24 35z"/>
<path d="M6178 6383 c7 -3 16 -2 19 1 4 3 -2 6 -13 5 -11 0 -14 -3 -6 -6z"/>
<path d="M6842 6334 c-14 -16 -5 -18 17 -5 7 5 9 11 5 14 -5 3 -15 -1 -22 -9z"/>
<path d="M6648 6323 c7 -3 16 -2 19 1 4 3 -2 6 -13 5 -11 0 -14 -3 -6 -6z"/>
<path d="M7211 6004 c0 -11 3 -14 6 -6 3 7 2 16 -1 19 -3 4 -6 -2 -5 -13z"/>
<path d="M2985 7450 c4 -6 11 -8 16 -5 14 9 11 15 -7 15 -8 0 -12 -5 -9 -10z"/>
<path d="M2603 6420 c2 -31 12 -31 20 -1 3 11 -1 22 -9 25 -9 4 -13 -3 -11
-24z"/>
<path d="M2655 5860 c3 -5 8 -10 11 -10 2 0 4 5 4 10 0 6 -5 10 -11 10 -5 0
-7 -4 -4 -10z"/>
<path d="M2610 5750 c-9 -6 -10 -10 -3 -10 6 0 15 5 18 10 8 12 4 12 -15 0z"/>
<path d="M2646 5412 c-3 -6 -1 -14 5 -17 14 -9 20 -2 10 14 -6 8 -11 9 -15 3z"/>
<path d="M2685 5400 c3 -5 10 -10 16 -10 5 0 9 5 9 10 0 6 -7 10 -16 10 -8 0
-12 -4 -9 -10z"/>
<path d="M2695 5210 c-3 -5 -1 -10 4 -10 6 0 11 5 11 10 0 6 -2 10 -4 10 -3 0
-8 -4 -11 -10z"/>
<path d="M5500 6389 c7 -11 14 -18 17 -15 8 8 -5 36 -17 36 -7 0 -7 -6 0 -21z"/>
<path d="M5466 6305 c4 -8 8 -15 10 -15 2 0 4 7 4 15 0 8 -4 15 -10 15 -5 0
-7 -7 -4 -15z"/>
<path d="M5460 6269 c0 -5 5 -7 10 -4 6 3 10 8 10 11 0 2 -4 4 -10 4 -5 0 -10
-5 -10 -11z"/>
<path d="M4710 5751 c0 -6 10 -12 23 -12 12 -1 32 -3 45 -4 12 -1 21 2 19 8
-4 14 -87 21 -87 8z"/>
<path d="M4482 4540 c0 -19 2 -27 5 -17 2 9 2 25 0 35 -3 9 -5 1 -5 -18z"/>
<path d="M5900 5940 c0 -5 5 -10 10 -10 6 0 10 5 10 10 0 6 -4 10 -10 10 -5 0
-10 -4 -10 -10z"/>
<path d="M5852 5735 c0 -16 2 -22 5 -12 2 9 2 23 0 30 -3 6 -5 -1 -5 -18z"/>
<path d="M5710 5490 c0 -5 5 -10 11 -10 5 0 7 5 4 10 -3 6 -8 10 -11 10 -2 0
-4 -4 -4 -10z"/>
<path d="M5745 5430 c3 -5 8 -10 11 -10 2 0 4 5 4 10 0 6 -5 10 -11 10 -5 0
-7 -4 -4 -10z"/>
<path d="M7490 5015 c-11 -13 -10 -14 4 -9 9 3 16 10 16 15 0 13 -6 11 -20 -6z"/>
<path d="M7516 4919 c3 -5 14 -14 25 -19 15 -8 19 -7 19 3 0 8 -11 17 -25 19
-13 3 -22 1 -19 -3z"/>
<path d="M7505 4880 c3 -5 10 -10 16 -10 5 0 9 5 9 10 0 6 -7 10 -16 10 -8 0
-12 -4 -9 -10z"/>
<path d="M7510 4840 c0 -5 5 -10 10 -10 6 0 10 5 10 10 0 6 -4 10 -10 10 -5 0
-10 -4 -10 -10z"/>
<path d="M2747 5044 c-5 -5 8 -62 16 -70 2 -2 3 12 4 31 1 33 -8 51 -20 39z"/>
<path d="M2721 5023 c0 -4 4 -17 9 -28 8 -19 9 -19 9 2 1 12 -3 25 -9 28 -5 3
-10 3 -9 -2z"/>
<path d="M7520 4409 c0 -5 5 -7 10 -4 6 3 10 8 10 11 0 2 -4 4 -10 4 -5 0 -10
-5 -10 -11z"/>
<path d="M7066 2995 c-3 -8 -1 -15 4 -15 13 0 22 18 11 24 -5 3 -11 -1 -15 -9z"/>
<path d="M6916 2975 c4 -8 10 -15 15 -15 4 0 6 7 3 15 -4 8 -10 15 -15 15 -4
0 -6 -7 -3 -15z"/>
<path d="M5227 4004 c3 -7 9 -14 14 -14 14 0 10 17 -5 23 -10 4 -13 1 -9 -9z"/>
<path d="M2865 3990 c-3 -5 -2 -10 4 -10 5 0 13 5 16 10 3 6 2 10 -4 10 -5 0
-13 -4 -16 -10z"/>
<path d="M5098 3893 c7 -3 16 -2 19 1 4 3 -2 6 -13 5 -11 0 -14 -3 -6 -6z"/>
<path d="M4670 3471 c0 -12 5 -21 10 -21 6 0 10 8 10 18 0 15 2 15 11 2 9 -13
10 -13 6 0 -6 24 -37 25 -37 1z"/>
<path d="M4610 3419 c0 -5 5 -7 10 -4 6 3 10 8 10 11 0 2 -4 4 -10 4 -5 0 -10
-5 -10 -11z"/>
<path d="M4477 3333 c-4 -3 -7 -10 -7 -14 0 -9 39 1 46 12 6 10 -29 12 -39 2z"/>
<path d="M4430 3315 c0 -8 5 -15 10 -15 6 0 10 7 10 15 0 8 -4 15 -10 15 -5 0
-10 -7 -10 -15z"/>
<path d="M4470 3290 c0 -6 7 -10 15 -10 8 0 15 2 15 4 0 2 -7 6 -15 10 -8 3
-15 1 -15 -4z"/>
<path d="M3945 3180 c-3 -5 -1 -10 4 -10 6 0 11 5 11 10 0 6 -2 10 -4 10 -3 0
-8 -4 -11 -10z"/>
<path d="M4680 3278 c0 -18 2 -19 18 -7 9 7 18 14 20 15 1 1 -6 4 -18 7 -15 4
-20 0 -20 -15z"/>
<path d="M5710 2311 c0 -6 4 -13 10 -16 6 -3 7 1 4 9 -7 18 -14 21 -14 7z"/>
<path d="M5650 2302 c0 -12 19 -26 26 -19 2 2 -2 10 -11 17 -9 8 -15 8 -15 2z"/>
</g>
</svg>
